<svg xmlns="http://www.w3.org/2000/svg" viewBox="0 0 410 404" fill="none">
  <defs>
    <linearGradient x1="255.516" y1="6.13237" x2="72.5163" y2="402" id="paint0_linear" gradientUnits="userSpaceOnUse">
      <stop stop-color="#41D1FF"/>
      <stop offset="1" stop-color="#BD34FE"/>
    </linearGradient>
    <linearGradient x1="6.00002" y1="72.0002" x2="235" y2="344" id="paint1_linear" gradientUnits="userSpaceOnUse">
      <stop stop-color="#FFEA83"/>
      <stop offset="0.0833333" stop-color="#FFDD35"/>
      <stop offset="1" stop-color="#FFA800"/>
    </linearGradient>
  </defs>
  <path d="M399.641 59.5246L215.393 388.545C211.844 394.899 203.083 395.184 199.159 389.057L10.9442 99.4731C7.01629 93.3403 12.3172 85.5773 19.3358 86.9327L201.778 121.195C202.801 121.389 203.458 122.328 203.308 123.358L186.573 238.876C186.422 239.912 187.094 240.884 188.111 241.079L233.272 249.739C234.293 249.934 234.976 248.956 234.826 247.92L210.923 82.4783C210.772 81.4426 211.449 80.4705 212.47 80.275L396.361 44.7162C403.388 43.3584 408.688 51.1355 404.746 57.2686" fill="#41D1FF"/>
  <path d="M399.641 59.5246L215.393 388.545C211.844 394.899 203.083 395.184 199.159 389.057L10.9442 99.4731C7.01629 93.3403 12.3172 85.5773 19.3358 86.9327L201.778 121.195C202.801 121.389 203.458 122.328 203.308 123.358L186.573 238.876C186.422 239.912 187.094 240.884 188.111 241.079L233.272 249.739C234.293 249.934 234.976 248.956 234.826 247.92L210.923 82.4783C210.772 81.4426 211.449 80.4705 212.47 80.275L396.361 44.7162C403.388 43.3584 408.688 51.1355 404.746 57.2686" fill="url(#paint0_linear)"/>
  <path d="M146.719 0.552734L7.38736 32.4936C1.87902 33.7731 -0.725591 40.696 2.84174 45.4852L186.471 301.272C189.787 305.694 196.708 305.216 199.335 300.301L287.598 137.207C290.506 131.749 286.007 125.095 279.844 126.276L196.9 142.292C195.873 142.488 195.162 143.444 195.312 144.477L203.203 197.775C203.353 198.811 202.641 199.784 201.618 199.98L181.999 203.732C180.981 203.928 180.274 202.965 180.424 201.929L198.025 79.3435C198.175 78.3071 197.464 77.335 196.442 77.1396L145.24 67.0903C139.085 65.8999 134.59 59.2489 137.497 53.792L149.547 30.9129C152.062 26.182 149.007 20.4373 143.959 20.5143L109.498 21.0712C108.288 21.0906 107.205 21.8501 106.755 22.9739L96.5404 49.2224C94.1185 55.3566 87.4709 58.7814 81.2478 56.6055L67.8855 51.9544C60.2161 49.2456 59.7579 38.6736 67.1578 35.2177L144.109 0.780685C145.136 0.306049 146.29 0.148522 147.418 0.32779L173.421 4.46807C179.574 5.63762 184.069 12.2714 181.167 17.7367L146.719 80.9427C144.23 85.6717 137.297 86.1461 133.968 81.7282L18.4454 4.65955C12.9367 0.404235 15.5345 -7.51417 21.726 -6.36219L146.719 0.552734Z" fill="url(#paint1_linear)"/>
</svg>
